<svg width="511" height="463" viewBox="0 0 511 463" fill="none" xmlns="http://www.w3.org/2000/svg">
<path d="M112 33C96.9 34.8 85 40.8 73.5 52.4C67.2 58.8 64.6 62.3 61.3 69C59 73.7 56.6 80 55.8 83C54.8 87.5 54.5 114.5 54.5 228V367.5L57.3 375.5C65.1 397.6 82 413.5 103.6 419C111.1 420.9 115.2 421 231.7 421H352V433.1C352 444.2 352.1 445.2 353.8 444.5C356.9 443.3 432 399.7 432 399.1C431.9 398.6 355.3 354.1 352.9 353.2C352.4 353 352 358.7 352 365.9V379H232.8L113.5 378.9L109 376.6C103.8 374 98.5 367.6 97 362.2C96.4 359.7 96 314.2 96 226V93.5L98.4 88.5C99.6 85.7 102.3 82 104.3 80.3C111.9 73.6 104.7 73.9 251.1 74.2L383.5 74.5L387.5 76.7C389.7 77.9 392.9 80.3 394.7 82.2C401.3 89.1 401 84.7 401 173.2C401 262.8 401.3 257.6 394 264.7C386.9 271.6 387.9 271.5 342.3 271.8C296.5 272.1 294.9 271.9 286 265.8C281.2 262.5 277.9 258.4 274.9 252C273.1 248.1 273 248.1 270.4 257.5C268.4 264.8 264.6 273 261.9 275.8C260.9 277 260 278.3 260 278.8C260 279.3 259.1 280.5 258 281.5C254.7 284.5 255.1 285.4 261.6 291C265.8 294.5 277.5 300.8 285.1 303.6L291.7 306H340.3H388.9L397.2 303.4C415.9 297.5 428.7 286.9 436.9 270.3C443.1 258 443 259.3 443 171.5C443 81.8 443.1 83.7 435.9 69C430.2 57.4 417.9 45 407 39.7C391.2 32 403.2 32.6 253 32.4C179 32.3 115.6 32.6 112 33Z" fill="black"/>
<path d="M114 235.5V305H154C176.6 305 197.1 304.5 201.2 304C209.5 302.8 221.8 300.1 224 299C224.8 298.6 227.3 297.4 229.5 296.4C231.7 295.3 233.7 294.2 233.8 293.7C234 293.3 234.7 293 235.3 293C236 293 237.8 292 239.5 290.7C244.1 287.3 257 273.8 257 272.5C257 271.8 257.7 270.7 258.5 270C259.3 269.3 260 267.9 260 267C260 266 260.4 265 260.8 264.8C262.5 264.1 265.9 252.1 266.5 244.5C268 227.4 271.5 218.3 279 211.9C286.3 205.6 286.9 205.6 326.4 205L362.4 204.5L367.7 197C379.8 179.8 386 170.2 386 168.9C386 168.3 367.1 168.1 337.8 168.2C294.3 168.5 288.8 168.7 282.5 170.4C274.4 172.5 260.5 179.1 256.3 182.7C254.8 184.1 252.5 185.9 251.2 186.7C248.1 188.8 240.2 200.3 237 207.5C234.2 213.8 233.8 216 231.5 236C230.7 242.9 229.6 248.6 229 248.8C228.5 249 228 250 228 251C228 253.8 218.3 263.8 212.9 266.6C208.1 269 207.7 269 180.5 269H153V234.5V200H174.8C198.8 200 203.3 200.7 211.9 206.1C217.3 209.3 221.1 213.6 224.3 219.5L226.4 223.5L227.5 218C230 206 235.3 195.3 242.8 187.5C244.6 185.5 244.3 184.8 239.6 181.1C230.2 173.8 221.3 170 206 167C203.5 166.5 181.8 166.1 157.8 166.1L114 166V235.5Z" fill="black"/>
<path d="M97.5 16.6193C82.4 18.4193 70.5 24.4194 59 36.0194C52.7 42.4194 50.1 45.9194 46.8 52.6194C44.5 57.3194 42.1 63.6194 41.3 66.6194C40.3 71.1194 40 98.1194 40 211.619V351.119L42.8 359.119C50.6 381.219 67.5 397.119 89.1 402.619C96.6 404.519 100.7 404.619 217.2 404.619H337.5V416.719C337.5 427.819 337.6 428.819 339.3 428.119C342.4 426.919 417.5 383.319 417.5 382.719C417.4 382.219 340.8 337.719 338.4 336.819C337.9 336.619 337.5 342.319 337.5 349.519V362.619H218.3L99 362.519L94.5 360.219C89.3 357.619 84 351.219 82.5 345.819C81.9 343.319 81.5 297.819 81.5 209.619V77.1194L83.9 72.1194C85.1 69.3194 87.8 65.6194 89.8 63.9194C97.4 57.2194 90.2 57.5194 236.6 57.8194L369 58.1194L373 60.3194C375.2 61.5194 378.4 63.9194 380.2 65.8194C386.8 72.7194 386.5 68.3194 386.5 156.819C386.5 246.419 386.8 241.219 379.5 248.319C372.4 255.219 373.4 255.119 327.8 255.419C282 255.719 280.4 255.519 271.5 249.419C266.7 246.119 263.4 242.019 260.4 235.619C258.6 231.719 258.5 231.719 255.9 241.119C253.9 248.419 250.1 256.619 247.4 259.419C246.4 260.619 245.5 261.919 245.5 262.419C245.5 262.919 244.6 264.119 243.5 265.119C240.2 268.119 240.6 269.019 247.1 274.619C251.3 278.119 263 284.419 270.6 287.219L277.2 289.619H325.8H374.4L382.7 287.019C401.4 281.119 414.2 270.519 422.4 253.919C428.6 241.619 428.5 242.919 428.5 155.119C428.5 65.4194 428.6 67.3194 421.4 52.6194C415.7 41.0194 403.4 28.6194 392.5 23.3194C376.7 15.6194 388.7 16.2193 238.5 16.0193C164.5 15.9193 101.1 16.2193 97.5 16.6193Z" fill="#E5E5E5"/>
<path d="M99.5 219.119V288.619H139.5C162.1 288.619 182.6 288.119 186.7 287.619C195 286.419 207.3 283.719 209.5 282.619C210.3 282.219 212.8 281.019 215 280.019C217.2 278.919 219.2 277.819 219.3 277.319C219.5 276.919 220.2 276.619 220.8 276.619C221.5 276.619 223.3 275.619 225 274.319C229.6 270.919 242.5 257.419 242.5 256.119C242.5 255.419 243.2 254.319 244 253.619C244.8 252.919 245.5 251.519 245.5 250.619C245.5 249.619 245.9 248.619 246.3 248.419C248 247.719 251.4 235.719 252 228.119C253.5 211.019 257 201.919 264.5 195.519C271.8 189.219 272.4 189.219 311.9 188.619L347.9 188.119L353.2 180.619C365.3 163.419 371.5 153.819 371.5 152.519C371.5 151.919 352.6 151.719 323.3 151.819C279.8 152.119 274.3 152.319 268 154.019C259.9 156.119 246 162.719 241.8 166.319C240.3 167.719 238 169.519 236.7 170.319C233.6 172.419 225.7 183.919 222.5 191.119C219.7 197.419 219.3 199.619 217 219.619C216.2 226.519 215.1 232.219 214.5 232.419C214 232.619 213.5 233.619 213.5 234.619C213.5 237.419 203.8 247.419 198.4 250.219C193.6 252.619 193.2 252.619 166 252.619H138.5V218.119V183.619H160.3C184.3 183.619 188.8 184.319 197.4 189.719C202.8 192.919 206.6 197.219 209.8 203.119L211.9 207.119L213 201.619C215.5 189.619 220.8 178.919 228.3 171.119C230.1 169.119 229.8 168.419 225.1 164.719C215.7 157.419 206.8 153.619 191.5 150.619C189 150.119 167.3 149.719 143.3 149.719L99.5 149.619V219.119Z" fill="#E5E5E5"/>
</svg>
